<?xml version="1.0" standalone="no"?>
<!DOCTYPE svg PUBLIC "-//W3C//DTD SVG 20010904//EN"
 "http://www.w3.org/TR/2001/REC-SVG-20010904/DTD/svg10.dtd">
<svg version="1.0" xmlns="http://www.w3.org/2000/svg"
 width="500.000000pt" height="500.000000pt" viewBox="0 0 500.000000 500.000000"
 preserveAspectRatio="xMidYMid meet">
<metadata>
Created by potrace 1.14, written by Peter Selinger 2001-2017
</metadata>
<g transform="translate(0.000000,500.000000) scale(0.100000,-0.100000)"
fill="#000000" stroke="none">
<path d="M2485 4329 c-33 -5 -118 -8 -190 -8 -137 0 -224 -13 -355 -54 -51
-16 -75 -29 -74 -39 1 -10 -6 -13 -20 -11 -14 3 -31 -6 -50 -26 -26 -27 -28
-34 -18 -56 7 -15 17 -22 26 -19 22 8 30 -15 11 -36 -22 -24 -4 -34 43 -24 20
4 44 9 52 9 8 1 21 3 28 4 7 0 20 17 28 36 8 19 21 35 29 35 8 0 21 13 30 30
8 16 38 44 65 62 28 18 50 38 50 44 0 12 77 30 86 21 3 -3 -11 -11 -31 -18
-30 -11 -35 -17 -30 -36 4 -17 0 -25 -12 -29 -22 -8 -87 -35 -92 -40 -2 -2 2
-10 8 -18 8 -10 23 -13 47 -9 22 4 34 2 34 -6 0 -6 -17 -11 -40 -11 -45 0 -49
-8 -20 -33 15 -12 38 -17 84 -17 60 0 66 -2 95 -35 33 -38 56 -105 46 -135 -9
-28 3 -44 21 -29 12 10 18 8 29 -7 20 -27 18 -32 -11 -26 -24 4 -25 2 -22 -28
4 -39 19 -48 42 -25 15 15 16 15 16 -4 0 -12 -4 -21 -10 -21 -5 0 -16 -10 -25
-23 -12 -19 -13 -33 -3 -86 8 -44 17 -65 29 -68 11 -3 15 -12 11 -30 -3 -15 3
-35 17 -53 11 -16 21 -33 21 -37 0 -12 97 -56 108 -49 6 3 13 29 17 56 4 27
11 52 16 56 5 3 9 14 9 24 0 39 22 67 61 79 24 7 49 25 65 46 18 24 37 36 62
41 42 7 91 32 110 54 7 9 10 28 7 45 -14 75 -14 98 1 121 9 13 14 30 11 38 -4
10 -1 13 9 9 26 -10 14 16 -23 52 -35 31 -36 34 -15 35 29 0 28 14 -3 34 -30
20 -32 44 -4 90 20 34 20 36 2 43 -10 4 -37 8 -60 8 -29 0 -43 4 -43 14 0 9
-7 11 -24 7 -18 -4 -28 0 -39 18 -12 18 -31 26 -80 35 -35 6 -66 10 -68 10 -2
-1 -31 -5 -64 -10z"/>
<path d="M1661 4111 c-8 -5 -10 -14 -7 -20 9 -13 33 -15 40 -2 9 14 -18 31
-33 22z"/>
<path d="M1720 4101 c0 -24 18 -37 31 -24 13 13 1 43 -17 43 -8 0 -14 -9 -14
-19z"/>
<path d="M1706 4051 c-4 -6 2 -16 14 -23 11 -7 20 -23 20 -36 0 -24 0 -24 83
-17 45 4 85 9 90 12 4 2 7 16 7 30 0 24 -2 25 -37 19 -109 -19 -111 -19 -110
1 2 13 -6 19 -30 21 -17 2 -34 -1 -37 -7z"/>
<path d="M1633 4017 c-60 -20 -34 -57 37 -53 33 2 46 7 48 19 2 10 -3 17 -11
17 -8 0 -17 7 -21 15 -6 17 -7 17 -53 2z"/>
<path d="M1530 3970 c0 -24 -4 -25 -35 -4 -22 14 -25 14 -57 -15 -32 -30 -32
-32 -14 -46 11 -8 29 -15 41 -15 16 0 70 29 103 56 2 1 1 12 -3 23 -8 27 -35
27 -35 1z"/>
<path d="M1918 3955 c-3 -3 -30 -6 -61 -6 -61 -1 -86 -18 -107 -73 -9 -24 -8
-31 4 -38 8 -5 12 -16 9 -29 -6 -20 -3 -21 83 -18 85 3 89 2 92 -18 2 -12 13
-25 25 -29 22 -7 22 -8 -3 -14 -16 -4 -26 -14 -28 -28 -4 -26 14 -29 46 -6 20
13 22 14 22 0 0 -27 -39 -81 -62 -86 -13 -3 -25 -14 -26 -24 -4 -16 1 -18 30
-13 30 5 39 1 70 -33 50 -52 128 -70 82 -18 -21 23 -20 23 33 1 6 -2 14 5 18
16 4 15 -1 31 -19 52 -14 17 -26 40 -26 52 1 21 2 21 23 -5 28 -35 50 -36 65
-3 17 37 17 37 -39 79 -30 23 -46 43 -41 48 17 17 0 53 -39 81 -22 15 -46 27
-54 27 -8 0 -23 17 -34 39 -11 21 -27 41 -36 45 -20 7 -20 7 -27 1z"/>
<path d="M1687 3933 c-8 -8 -9 -73 -2 -73 10 0 65 60 65 70 0 11 -53 14 -63 3z"/>
<path d="M1623 3908 c-5 -7 -13 -21 -16 -30 -4 -10 -13 -18 -22 -18 -22 0 -18
-16 9 -33 32 -22 54 -4 58 47 3 40 -11 57 -29 34z"/>
<path d="M1528 3873 c-8 -10 -18 -31 -22 -46 l-7 -28 -35 30 c-19 17 -43 31
-52 31 -38 0 -77 -44 -96 -107 -9 -27 14 -32 34 -8 11 14 14 13 25 -2 7 -9 19
-14 29 -10 27 11 18 -9 -11 -22 l-27 -13 24 -18 c14 -11 33 -17 42 -14 19 6
45 -31 28 -41 -5 -3 -10 -1 -10 5 0 7 -12 10 -30 8 -20 -2 -34 3 -43 16 -12
16 -22 17 -75 11 -51 -6 -66 -12 -86 -36 -14 -16 -33 -29 -43 -29 -47 0 -61
-13 -92 -79 -53 -115 -112 -309 -90 -295 5 3 9 -2 9 -10 0 -27 19 -18 26 12
12 54 15 61 34 67 29 9 39 -1 51 -51 7 -25 18 -48 25 -51 8 -3 14 -16 14 -28
0 -13 5 -27 10 -30 6 -3 10 -18 10 -33 0 -15 8 -38 17 -52 13 -18 16 -43 15
-113 -2 -95 13 -146 61 -211 13 -17 38 -62 55 -99 35 -76 68 -127 83 -127 13
0 11 21 -5 39 -23 27 -68 111 -59 111 8 -1 108 -151 137 -208 13 -24 34 -41
79 -63 34 -16 70 -29 79 -29 9 0 19 -4 22 -9 3 -5 25 -18 48 -29 24 -11 64
-41 89 -66 34 -34 54 -46 76 -46 54 0 70 -45 33 -93 -12 -15 -20 -40 -20 -61
0 -51 78 -155 142 -191 59 -32 65 -51 49 -158 -7 -54 -8 -84 -1 -91 5 -5 10
-20 10 -32 0 -18 7 -23 40 -29 36 -6 44 -3 75 24 19 16 50 33 69 37 20 3 40
12 47 20 6 8 19 14 29 14 18 0 90 64 90 80 0 13 54 40 80 40 30 0 67 41 79 87
6 23 25 53 46 72 49 44 47 71 -8 94 -23 9 -52 17 -64 17 -38 0 -153 42 -153
56 0 27 -45 65 -85 71 -22 4 -65 24 -96 45 -43 29 -66 38 -98 38 -23 0 -61 10
-83 21 -28 14 -43 18 -46 10 -2 -6 -10 -11 -17 -11 -7 0 -23 -9 -36 -19 -18
-14 -28 -17 -42 -9 -10 5 -25 7 -34 4 -29 -11 -52 12 -55 56 -3 37 -6 42 -38
53 -33 11 -35 15 -38 58 -3 42 -6 47 -28 47 -14 0 -24 -6 -24 -15 0 -19 -36
-38 -58 -31 -29 9 -52 60 -52 113 0 26 4 53 8 59 15 22 46 32 71 23 16 -6 28
-6 35 1 5 5 29 10 53 10 41 0 44 -2 65 -47 39 -80 68 -59 33 23 -18 42 -11 60
39 97 23 18 40 43 51 76 19 57 50 101 71 101 8 0 14 8 14 18 0 22 36 57 68 67
16 5 22 2 22 -9 0 -20 24 -21 40 -1 7 8 20 15 30 15 16 0 50 29 50 43 0 4 -12
7 -28 7 -38 0 -74 27 -67 50 13 42 -34 32 -87 -18 -35 -32 -36 -17 -3 21 27
30 87 47 99 28 11 -17 49 -14 42 4 -3 10 1 15 12 15 10 0 28 7 40 16 34 23 39
10 15 -39 l-21 -43 42 -11 c22 -6 51 -14 64 -18 16 -5 22 -3 22 7 0 25 -24 67
-41 71 -13 4 -15 14 -12 53 4 40 1 54 -16 73 -12 13 -21 28 -21 33 0 4 -8 8
-18 8 -25 0 -62 41 -62 69 0 24 -34 96 -50 106 -5 3 -16 -11 -25 -31 -12 -30
-19 -35 -37 -30 -13 3 -26 6 -30 6 -4 0 -5 14 -1 31 5 25 0 36 -28 65 -26 27
-41 34 -70 34 -21 0 -40 -4 -43 -8 -7 -12 -8 -143 -1 -183 6 -30 3 -40 -15
-57 -19 -18 -22 -28 -16 -61 7 -45 -3 -57 -34 -41 -15 8 -20 21 -20 51 0 29
-5 41 -17 45 -52 17 -145 68 -150 82 -4 10 -12 21 -20 25 -7 4 -13 17 -13 28
0 25 35 95 54 106 7 4 32 30 56 58 42 48 42 48 36 17 l-7 -31 50 2 c55 2 63
13 31 42 -25 23 -25 46 1 78 15 20 19 38 17 69 -3 39 -6 43 -30 46 -19 2 -28
-1 -28 -11 0 -23 -31 -78 -41 -71 -5 3 -6 16 -3 30 5 18 2 24 -10 24 -9 0 -16
-6 -16 -12 -1 -25 -29 38 -30 65 0 35 -28 48 -46 22 -16 -22 -19 -65 -4 -65 6
0 10 -5 10 -11 0 -7 -10 -9 -25 -5 -21 5 -27 1 -39 -29 -12 -29 -20 -35 -45
-35 -38 0 -50 17 -17 26 30 7 45 63 21 77 -17 9 -21 72 -5 82 12 8 13 35 2 35
-5 0 -16 -8 -24 -17z"/>
<path d="M2873 3627 c-3 -5 0 -13 7 -17 7 -4 9 -13 6 -19 -4 -6 7 -25 24 -42
33 -34 60 -34 106 -1 27 19 30 40 11 66 -11 15 -29 19 -81 20 -37 1 -70 -2
-73 -7z"/>
<path d="M1793 2473 c-23 -9 -13 -23 16 -23 15 0 49 -11 75 -25 26 -14 54 -25
62 -25 30 0 7 25 -47 52 -52 26 -81 32 -106 21z"/>
<path d="M1979 2394 c-10 -13 -10 -17 2 -25 37 -23 104 2 77 29 -17 17 -63 15
-79 -4z"/>
<path d="M1450 632 c-26 -8 -40 -35 -40 -78 0 -48 19 -74 55 -74 24 0 55 23
55 41 0 15 -22 10 -35 -8 -22 -30 -45 -9 -45 42 0 51 23 72 45 42 15 -21 35
-22 35 -3 0 24 -42 47 -70 38z"/>
<path d="M2580 560 c0 -64 3 -80 15 -80 11 0 15 12 15 45 0 38 3 45 20 45 17
0 20 -7 20 -45 0 -33 4 -45 15 -45 11 0 15 12 15 50 0 40 -4 51 -21 60 -15 9
-24 8 -35 -1 -12 -9 -14 -6 -14 20 0 21 -5 31 -15 31 -12 0 -15 -16 -15 -80z"/>
<path d="M3360 630 c0 -5 7 -10 15 -10 12 0 15 -13 15 -60 0 -47 -3 -60 -15
-60 -8 0 -15 -4 -15 -10 0 -5 23 -10 50 -10 50 0 67 13 30 23 -17 4 -20 14
-20 71 l0 66 -30 0 c-16 0 -30 -4 -30 -10z"/>
<path d="M3550 614 c0 -19 -4 -25 -15 -20 -20 7 -55 -28 -55 -55 0 -42 18 -59
60 -57 l40 1 0 79 c0 63 -3 78 -15 78 -9 0 -15 -10 -15 -26z m0 -80 c0 -28 -3
-35 -17 -32 -31 6 -29 68 2 68 11 0 15 -10 15 -36z"/>
<path d="M2208 599 c-22 -23 -22 -29 -4 -29 10 0 16 -14 18 -42 3 -40 5 -43
36 -46 18 -2 32 1 32 7 0 6 -9 11 -20 11 -16 0 -20 7 -20 35 0 28 4 35 20 35
11 0 20 5 20 10 0 6 -9 10 -20 10 -11 0 -20 7 -20 15 0 20 -21 17 -42 -6z"/>
<path d="M2470 606 c0 -8 -6 -17 -12 -20 -10 -5 -10 -7 0 -12 6 -3 12 -17 12
-30 0 -42 18 -64 50 -64 35 0 41 17 8 22 -18 2 -24 11 -26 36 -3 26 0 32 17
32 11 0 23 5 26 10 3 6 -3 10 -15 10 -11 0 -23 7 -26 15 -8 19 -34 20 -34 1z"/>
<path d="M1561 581 c-25 -25 -27 -63 -5 -85 47 -48 123 23 82 76 -22 28 -55
31 -77 9z m54 -22 c12 -19 -4 -61 -23 -57 -30 6 -28 68 2 68 8 0 18 -5 21 -11z"/>
<path d="M1720 590 c-7 -4 -21 -5 -31 -3 -17 5 -19 -1 -19 -51 0 -42 4 -56 14
-56 10 0 16 14 18 43 2 34 7 42 23 42 16 0 21 -8 23 -42 4 -53 32 -62 32 -10
0 66 -25 98 -60 77z"/>
<path d="M1850 590 c-7 -4 -21 -5 -31 -3 -17 5 -19 -1 -19 -51 0 -42 4 -56 14
-56 10 0 16 14 18 43 2 34 7 42 23 42 16 0 21 -8 23 -42 4 -53 32 -62 32 -10
0 66 -25 98 -60 77z"/>
<path d="M1951 581 c-25 -25 -27 -64 -5 -86 20 -19 75 -17 82 4 3 10 0 12 -13
7 -21 -8 -55 1 -55 15 0 5 18 9 41 9 37 0 40 2 34 23 -14 44 -54 58 -84 28z
m54 -21 c4 -6 -5 -10 -20 -10 -15 0 -24 4 -20 10 3 6 12 10 20 10 8 0 17 -4
20 -10z"/>
<path d="M2082 584 c-43 -30 -20 -104 32 -104 22 0 46 17 46 32 0 13 -28 9
-32 -4 -7 -21 -38 0 -38 27 0 27 31 48 38 27 5 -17 32 -15 32 3 0 9 -12 20
-26 25 -31 12 -25 13 -52 -6z"/>
<path d="M2732 584 c-32 -22 -31 -80 2 -95 26 -12 76 -5 76 11 0 6 -14 9 -31
8 -19 -2 -34 2 -36 10 -3 8 7 12 31 12 29 0 36 4 36 19 0 17 -33 51 -50 51 -3
0 -16 -7 -28 -16z m48 -24 c0 -5 -9 -10 -21 -10 -11 0 -17 5 -14 10 3 6 13 10
21 10 8 0 14 -4 14 -10z"/>
<path d="M3124 590 c-53 -21 -32 -110 26 -110 50 0 70 75 28 104 -25 18 -25
18 -54 6z m44 -49 c2 -13 -1 -28 -7 -34 -17 -17 -45 15 -36 42 9 29 39 23 43
-8z"/>
<path d="M3291 591 c-7 -5 -22 -6 -32 -4 -17 5 -19 -1 -19 -51 0 -43 3 -56 15
-56 11 0 15 11 15 40 0 37 3 41 30 47 17 3 29 10 27 16 -5 15 -20 18 -36 8z"/>
<path d="M2964 553 c3 -21 6 -46 6 -55 0 -31 29 -20 38 15 l9 32 7 -32 c12
-50 31 -40 43 22 7 40 7 55 -2 55 -6 0 -16 -12 -22 -27 l-11 -28 -1 28 c-2 41
-31 36 -32 -5 l-1 -33 -9 33 c-14 46 -33 42 -25 -5z"/>
</g>
</svg>
